#N canvas 518 117 576 441 10;
#X obj 92 193 gnusb __________________1;
#X floatatom 91 221 5 0 0 0 - - -;
#X floatatom 109 238 5 0 0 0 - - -;
#X floatatom 128 261 5 0 0 0 - - -;
#X obj 92 33 tgl 15 0 empty empty empty 17 7 0 10 -262144 -1 -1 0 1
;
#X floatatom 225 350 5 0 0 0 - - -;
#X floatatom 149 279 5 0 0 0 - - -;
#X floatatom 166 297 5 0 0 0 - - -;
#X floatatom 186 313 5 0 0 0 - - -;
#X floatatom 204 332 5 0 0 0 - - -;
#X floatatom 243 239 5 0 0 0 - - -;
#X floatatom 259 256 5 0 0 0 - - -;
#X msg 309 37 precision 10bit;
#X msg 430 36 precision 8bit;
#X msg 148 35 smooth 0;
#X msg 231 36 smooth \$1;
#X floatatom 231 17 5 0 0 0 - - -;
#X msg 279 151 output b \$1;
#X floatatom 279 130 5 0 0 0 - - -;
#X floatatom 432 129 5 0 0 0 - - -;
#X msg 432 150 output c \$1;
#X connect 0 0 1 0;
#X connect 0 1 2 0;
#X connect 0 2 3 0;
#X connect 0 3 6 0;
#X connect 0 4 7 0;
#X connect 0 5 8 0;
#X connect 0 6 9 0;
#X connect 0 7 5 0;
#X connect 0 8 10 0;
#X connect 0 9 11 0;
#X connect 4 0 0 0;
#X connect 12 0 0 0;
#X connect 13 0 0 0;
#X connect 14 0 0 0;
#X connect 15 0 0 0;
#X connect 16 0 15 0;
#X connect 17 0 0 0;
#X connect 18 0 17 0;
#X connect 19 0 20 0;
#X connect 20 0 0 0;
